<mxfile host="app.diagrams.net" modified="2022-07-14T13:48:53.092Z" agent="5.0 (Windows NT 10.0; Win64; x64) AppleWebKit/537.36 (KHTML, like Gecko) Chrome/103.0.0.0 Safari/537.36" etag="AJqBxM1sYhW5CRB3WDeq" version="20.1.1" type="github">
  <diagram id="mtMoTWHZLY8NA2YlaHTE" name="Page-1">
    <mxGraphModel dx="868" dy="482" grid="1" gridSize="10" guides="1" tooltips="1" connect="1" arrows="1" fold="1" page="1" pageScale="1" pageWidth="827" pageHeight="1169" math="0" shadow="0">
      <root>
        <mxCell id="0" />
        <mxCell id="1" parent="0" />
        <mxCell id="CwZlSINfEJVarHjjOR2T-53" value="" style="rounded=0;whiteSpace=wrap;html=1;dashed=1;fontFamily=Comic Sans MS;fontSize=17;strokeWidth=0.5;labelBackgroundColor=#E6E6E6;" vertex="1" parent="1">
          <mxGeometry x="440" y="170" width="220" height="260" as="geometry" />
        </mxCell>
        <mxCell id="CwZlSINfEJVarHjjOR2T-36" value="C2" style="text;html=1;strokeColor=none;fillColor=none;align=center;verticalAlign=middle;whiteSpace=wrap;rounded=0;dashed=1;fontSize=15;fontFamily=Comic Sans MS;spacingTop=1;" vertex="1" parent="1">
          <mxGeometry x="35" y="445" width="60" height="30" as="geometry" />
        </mxCell>
        <mxCell id="CwZlSINfEJVarHjjOR2T-16" value="" style="shape=tape;whiteSpace=wrap;html=1;direction=south;dashed=1;strokeWidth=0.5;" vertex="1" parent="1">
          <mxGeometry x="314" y="160" width="100" height="410" as="geometry" />
        </mxCell>
        <mxCell id="CwZlSINfEJVarHjjOR2T-2" value="" style="rounded=0;whiteSpace=wrap;html=1;" vertex="1" parent="1">
          <mxGeometry x="80" y="200" width="210" height="280" as="geometry" />
        </mxCell>
        <mxCell id="CwZlSINfEJVarHjjOR2T-3" value="" style="rounded=0;whiteSpace=wrap;html=1;fillColor=#fff2cc;strokeColor=#d6b656;" vertex="1" parent="1">
          <mxGeometry x="80" y="480" width="210" height="90" as="geometry" />
        </mxCell>
        <mxCell id="CwZlSINfEJVarHjjOR2T-4" value="" style="verticalAlign=top;verticalLabelPosition=bottom;labelPosition=center;align=center;html=1;outlineConnect=0;fillColor=#fff2cc;strokeColor=#d6b656;gradientDirection=north;strokeWidth=2;shape=mxgraph.networks.security_camera;direction=east;" vertex="1" parent="1">
          <mxGeometry x="290" y="180" width="60" height="50" as="geometry" />
        </mxCell>
        <mxCell id="CwZlSINfEJVarHjjOR2T-5" value="" style="verticalAlign=top;verticalLabelPosition=bottom;labelPosition=center;align=center;html=1;outlineConnect=0;fillColor=#e1d5e7;strokeColor=#9673a6;gradientDirection=north;strokeWidth=2;shape=mxgraph.networks.security_camera;" vertex="1" parent="1">
          <mxGeometry x="80" y="170" width="40" height="30" as="geometry" />
        </mxCell>
        <mxCell id="CwZlSINfEJVarHjjOR2T-11" value="" style="verticalAlign=top;verticalLabelPosition=bottom;labelPosition=center;align=center;html=1;outlineConnect=0;fillColor=#dae8fc;strokeColor=#6c8ebf;gradientDirection=north;strokeWidth=2;shape=mxgraph.networks.security_camera;direction=east;" vertex="1" parent="1">
          <mxGeometry x="85" y="480" width="35" height="30" as="geometry" />
        </mxCell>
        <mxCell id="CwZlSINfEJVarHjjOR2T-12" value="" style="endArrow=classic;startArrow=none;html=1;rounded=0;fillColor=#f8cecc;strokeColor=#b85450;" edge="1" parent="1" source="CwZlSINfEJVarHjjOR2T-25">
          <mxGeometry width="50" height="50" relative="1" as="geometry">
            <mxPoint x="319.5" y="570" as="sourcePoint" />
            <mxPoint x="319.5" y="240" as="targetPoint" />
          </mxGeometry>
        </mxCell>
        <mxCell id="CwZlSINfEJVarHjjOR2T-14" value="" style="endArrow=classic;startArrow=none;html=1;rounded=0;fillColor=#f8cecc;strokeColor=#b85450;" edge="1" parent="1" source="CwZlSINfEJVarHjjOR2T-21">
          <mxGeometry width="50" height="50" relative="1" as="geometry">
            <mxPoint x="370" y="180" as="sourcePoint" />
            <mxPoint x="120" y="180" as="targetPoint" />
          </mxGeometry>
        </mxCell>
        <mxCell id="CwZlSINfEJVarHjjOR2T-17" value="Mặt Đường" style="text;html=1;strokeColor=none;fillColor=none;align=center;verticalAlign=middle;whiteSpace=wrap;rounded=0;dashed=1;fontSize=15;fontFamily=Comic Sans MS;spacingTop=1;" vertex="1" parent="1">
          <mxGeometry x="340" y="350" width="60" height="30" as="geometry" />
        </mxCell>
        <mxCell id="CwZlSINfEJVarHjjOR2T-18" value="SÂN TRƯỚC" style="text;html=1;strokeColor=none;fillColor=none;align=center;verticalAlign=middle;whiteSpace=wrap;rounded=0;dashed=1;fontSize=15;fontFamily=Comic Sans MS;spacingTop=1;" vertex="1" parent="1">
          <mxGeometry x="180" y="510" width="60" height="30" as="geometry" />
        </mxCell>
        <mxCell id="CwZlSINfEJVarHjjOR2T-19" value="TẦNG&lt;br style=&quot;font-size: 19px;&quot;&gt;TRỆT" style="text;html=1;strokeColor=none;fillColor=none;align=center;verticalAlign=middle;whiteSpace=wrap;rounded=0;dashed=1;fontSize=19;fontFamily=Comic Sans MS;spacingTop=1;" vertex="1" parent="1">
          <mxGeometry x="142.5" y="350" width="85" height="80" as="geometry" />
        </mxCell>
        <mxCell id="CwZlSINfEJVarHjjOR2T-21" value="15M" style="text;html=1;strokeColor=none;fillColor=none;align=center;verticalAlign=middle;whiteSpace=wrap;rounded=0;dashed=1;fontSize=15;fontFamily=Comic Sans MS;spacingTop=1;" vertex="1" parent="1">
          <mxGeometry x="200" y="150" width="60" height="30" as="geometry" />
        </mxCell>
        <mxCell id="CwZlSINfEJVarHjjOR2T-24" value="" style="endArrow=none;startArrow=classic;html=1;rounded=0;fillColor=#f8cecc;strokeColor=#b85450;" edge="1" parent="1" target="CwZlSINfEJVarHjjOR2T-21">
          <mxGeometry width="50" height="50" relative="1" as="geometry">
            <mxPoint x="370" y="180" as="sourcePoint" />
            <mxPoint x="120" y="180" as="targetPoint" />
          </mxGeometry>
        </mxCell>
        <mxCell id="CwZlSINfEJVarHjjOR2T-25" value="25M" style="text;html=1;strokeColor=none;fillColor=none;align=center;verticalAlign=middle;whiteSpace=wrap;rounded=0;dashed=1;fontSize=15;fontFamily=Comic Sans MS;spacingTop=1;" vertex="1" parent="1">
          <mxGeometry x="290" y="380" width="60" height="30" as="geometry" />
        </mxCell>
        <mxCell id="CwZlSINfEJVarHjjOR2T-26" value="" style="endArrow=none;startArrow=classic;html=1;rounded=0;fillColor=#f8cecc;strokeColor=#b85450;" edge="1" parent="1" target="CwZlSINfEJVarHjjOR2T-25">
          <mxGeometry width="50" height="50" relative="1" as="geometry">
            <mxPoint x="319.5" y="570" as="sourcePoint" />
            <mxPoint x="319.5" y="240" as="targetPoint" />
          </mxGeometry>
        </mxCell>
        <mxCell id="CwZlSINfEJVarHjjOR2T-27" value="10M&lt;sup&gt;2&lt;/sup&gt;" style="text;html=1;strokeColor=none;fillColor=none;align=center;verticalAlign=middle;whiteSpace=wrap;rounded=0;dashed=1;fontSize=15;fontFamily=Comic Sans MS;spacingTop=1;" vertex="1" parent="1">
          <mxGeometry x="97.5" y="510" width="45" height="30" as="geometry" />
        </mxCell>
        <mxCell id="CwZlSINfEJVarHjjOR2T-35" value="C1" style="text;html=1;strokeColor=none;fillColor=none;align=center;verticalAlign=middle;whiteSpace=wrap;rounded=0;dashed=1;fontSize=15;fontFamily=Comic Sans MS;spacingTop=1;" vertex="1" parent="1">
          <mxGeometry x="50" y="480" width="30" height="30" as="geometry" />
        </mxCell>
        <mxCell id="CwZlSINfEJVarHjjOR2T-37" value="C3" style="text;html=1;strokeColor=none;fillColor=none;align=center;verticalAlign=middle;whiteSpace=wrap;rounded=0;dashed=1;fontSize=15;fontFamily=Comic Sans MS;spacingTop=1;" vertex="1" parent="1">
          <mxGeometry x="330" y="180" width="60" height="30" as="geometry" />
        </mxCell>
        <mxCell id="CwZlSINfEJVarHjjOR2T-38" value="" style="verticalAlign=top;verticalLabelPosition=bottom;labelPosition=center;align=center;html=1;outlineConnect=0;fillColor=#dae8fc;strokeColor=#6c8ebf;gradientDirection=north;strokeWidth=2;shape=mxgraph.networks.security_camera;direction=north;" vertex="1" parent="1">
          <mxGeometry x="80" y="440" width="30" height="35" as="geometry" />
        </mxCell>
        <mxCell id="CwZlSINfEJVarHjjOR2T-39" value="C4" style="text;html=1;strokeColor=none;fillColor=none;align=center;verticalAlign=middle;whiteSpace=wrap;rounded=0;dashed=1;fontSize=15;fontFamily=Comic Sans MS;spacingTop=1;" vertex="1" parent="1">
          <mxGeometry x="35" y="170" width="60" height="30" as="geometry" />
        </mxCell>
        <mxCell id="CwZlSINfEJVarHjjOR2T-40" value="" style="shape=step;perimeter=stepPerimeter;whiteSpace=wrap;html=1;fixedSize=1;dashed=1;fontFamily=Comic Sans MS;fontSize=19;strokeWidth=0.5;" vertex="1" parent="1">
          <mxGeometry x="80" y="290" width="70" height="20" as="geometry" />
        </mxCell>
        <mxCell id="CwZlSINfEJVarHjjOR2T-41" value="" style="shape=step;perimeter=stepPerimeter;whiteSpace=wrap;html=1;fixedSize=1;dashed=1;fontFamily=Comic Sans MS;fontSize=19;strokeWidth=0.5;direction=west;" vertex="1" parent="1">
          <mxGeometry x="220" y="290" width="70" height="20" as="geometry" />
        </mxCell>
        <mxCell id="CwZlSINfEJVarHjjOR2T-44" value="" style="rounded=0;whiteSpace=wrap;html=1;dashed=1;fontFamily=Comic Sans MS;fontSize=19;strokeWidth=0.5;fillColor=#647687;fontColor=#ffffff;strokeColor=#314354;" vertex="1" parent="1">
          <mxGeometry x="85" y="220" width="55" height="60" as="geometry" />
        </mxCell>
        <mxCell id="CwZlSINfEJVarHjjOR2T-46" value="" style="rounded=0;whiteSpace=wrap;html=1;dashed=1;fontFamily=Comic Sans MS;fontSize=19;strokeWidth=0.5;fillColor=#647687;strokeColor=#314354;fontColor=#ffffff;" vertex="1" parent="1">
          <mxGeometry x="240" y="220" width="42.5" height="60" as="geometry" />
        </mxCell>
        <mxCell id="CwZlSINfEJVarHjjOR2T-47" value="Cầu thang" style="text;html=1;strokeColor=none;fillColor=none;align=center;verticalAlign=middle;whiteSpace=wrap;rounded=0;dashed=1;fontSize=12;fontFamily=Comic Sans MS;spacingTop=1;fontColor=#FFFFFF;" vertex="1" parent="1">
          <mxGeometry x="90" y="210" width="45" height="80" as="geometry" />
        </mxCell>
        <mxCell id="CwZlSINfEJVarHjjOR2T-49" value="" style="rounded=0;whiteSpace=wrap;html=1;dashed=1;fontFamily=Comic Sans MS;fontSize=19;strokeWidth=0.5;fillColor=#647687;strokeColor=#314354;fontColor=#ffffff;" vertex="1" parent="1">
          <mxGeometry x="450" y="220" width="60" height="60" as="geometry" />
        </mxCell>
        <mxCell id="CwZlSINfEJVarHjjOR2T-50" value="Góc&lt;br&gt;này có thể quan sát không rõ do bị khuất" style="text;html=1;strokeColor=none;fillColor=none;align=center;verticalAlign=middle;whiteSpace=wrap;rounded=0;dashed=1;fontSize=15;fontFamily=Comic Sans MS;spacingTop=1;" vertex="1" parent="1">
          <mxGeometry x="520" y="222.5" width="120" height="55" as="geometry" />
        </mxCell>
        <mxCell id="CwZlSINfEJVarHjjOR2T-51" value="Chú thích:" style="text;html=1;strokeColor=none;fillColor=none;align=center;verticalAlign=middle;whiteSpace=wrap;rounded=0;dashed=1;fontSize=15;fontFamily=Comic Sans MS;spacingTop=1;" vertex="1" parent="1">
          <mxGeometry x="450" y="180" width="80" height="30" as="geometry" />
        </mxCell>
        <mxCell id="CwZlSINfEJVarHjjOR2T-52" value="C1, C2, C3, C4 : CAMERA LẦN LƯỢT 1, 2, 3, 4 trong báo giá" style="text;html=1;strokeColor=none;fillColor=none;align=center;verticalAlign=middle;whiteSpace=wrap;rounded=0;dashed=1;fontSize=17;fontFamily=Comic Sans MS;spacingTop=1;" vertex="1" parent="1">
          <mxGeometry x="450" y="300" width="200" height="120" as="geometry" />
        </mxCell>
        <mxCell id="CwZlSINfEJVarHjjOR2T-54" value="" style="shape=or;whiteSpace=wrap;html=1;dashed=1;labelBackgroundColor=#E6E6E6;fontFamily=Comic Sans MS;fontSize=17;strokeWidth=0.5;direction=north;" vertex="1" parent="1">
          <mxGeometry x="160" y="460" width="50" height="20" as="geometry" />
        </mxCell>
        <mxCell id="CwZlSINfEJVarHjjOR2T-55" value="door" style="text;html=1;strokeColor=none;fillColor=none;align=center;verticalAlign=middle;whiteSpace=wrap;rounded=0;dashed=1;labelBackgroundColor=none;fontFamily=Comic Sans MS;fontSize=17;" vertex="1" parent="1">
          <mxGeometry x="156" y="455" width="60" height="30" as="geometry" />
        </mxCell>
      </root>
    </mxGraphModel>
  </diagram>
</mxfile>
